<svg xmlns="http://www.w3.org/2000/svg" width="20" height="20" fill="none" viewBox="0 0 20 20"><path fill="#4A60A1" d="M8.07031 8.9214C8.07031 8.9214 9.96264 8.78274 9.96264 6.59244C9.96264 4.40199 8.41448 3.33301 6.4534 3.33301H0.000244141V15.5736H6.4534C6.4534 15.5736 10.3928 15.6964 10.3928 11.9607C10.3928 11.9608 10.5646 8.9214 8.07031 8.9214ZM5.9889 5.50863H6.4534C6.4534 5.50863 7.33057 5.50863 7.33057 6.78221C7.33057 8.05563 6.8147 8.24025 6.22956 8.24025H2.84359V5.50863H5.9889ZM6.27104 13.398H2.84359V10.1269H6.4534C6.4534 10.1269 7.76078 10.11 7.76078 11.8079C7.76078 13.2397 6.78429 13.3872 6.27104 13.398ZM15.6467 6.44737C10.8776 6.44737 10.8818 11.1506 10.8818 11.1506C10.8818 11.1506 10.5546 15.8296 15.6467 15.8296C15.6467 15.8296 19.8901 16.0689 19.8901 12.5747H17.7078C17.7078 12.5747 17.7805 13.8905 15.7195 13.8905C15.7195 13.8905 13.5368 14.0349 13.5368 11.7609H19.9628C19.9628 11.7609 20.666 6.44737 15.6467 6.44737ZM13.5129 10.1269C13.5129 10.1269 13.7793 8.24022 15.6952 8.24022C17.6106 8.24022 17.5866 10.1269 17.5866 10.1269H13.5129ZM18.095 5.56147H12.9786V4.05413H18.095V5.56147Z"/></svg>